<svg width="16" height="12" viewBox="0 0 16 12" fill="none" xmlns="http://www.w3.org/2000/svg">
<path fill-rule="evenodd" clip-rule="evenodd" d="M1.75176 0.346727C0.984217 0.445776 0.383174 1.06797 0.269205 1.90191C0.138143 2.86092 0 4.27976 0 6C0 7.72024 0.138143 9.13908 0.269205 10.0981C0.383174 10.932 0.984216 11.5542 1.75176 11.6533C2.95993 11.8092 5.04268 12 8 12C10.9573 12 13.0401 11.8092 14.2482 11.6533C15.0158 11.5542 15.6168 10.932 15.7308 10.0981C15.8619 9.13908 16 7.72024 16 6C16 4.27976 15.8619 2.86092 15.7308 1.90191C15.6168 1.06797 15.0158 0.445776 14.2482 0.346727C13.0401 0.190817 10.9573 0 8 0C5.04268 0 2.95993 0.190817 1.75176 0.346727ZM10.785 6.21587C10.9325 6.13549 10.9325 5.9059 10.785 5.82552L6.23248 3.34416C6.0995 3.27168 5.94309 3.37718 5.94309 3.53934V8.50205C5.94309 8.66422 6.0995 8.76971 6.23248 8.69723L10.785 6.21587Z" fill="#fff"/>
</svg>
